# File created by Blade
# Date/Time:  Tue Jan 27 18:50:13 2015
#---------------------------------------------------------
:version 1.10
:name HOM
:units
  mass 1.0
  length 1.000000
  angle deg
:documentation
     Acclaim Skeleton File
:root
   axis xyz
   order TX TY TZ RX RY RZ
   position 0.000000 0.000000 0.000000
   orientation 0 0 0
:bonedata
   begin
      id 1
      name Spine_dum
      direction 0.000000 1.000000 0.000000
      length 5.195262
      axis 0.0 0.0 0.0 xyz
   end
   begin
      id 2
      name LeftUpLeg_dum
      direction 1.000000 0.000000 0.000000
      length 3.351363
      axis 0.0 0.0 0.0 xyz
   end
   begin
      id 3
      name RightUpLeg_dum
      direction -1.000000 0.000000 0.000000
      length 3.351363
      axis 0.0 0.0 0.0 xyz
   end
   begin
      id 4
      name Spine
      direction 0.000000 1.000000 0.000000
      length 0.000000
      axis 0.0 0.0 0.0 xyz
      dof rx ry rz
   end
   begin
      id 5
      name Spine_dum1
      direction 0.000000 1.000000 0.000000
      length 15.653875
      axis 0.0 0.0 0.0 xyz
   end
   begin
      id 6
      name Spine_dum2
      direction 0.000000 1.000000 0.000000
      length 10.329768
      axis 0.0 0.0 0.0 xyz
   end
   begin
      id 7
      name Spine_dum3
      direction 0.000000 1.000000 0.000000
      length 10.329768
      axis 0.0 0.0 0.0 xyz
   end
   begin
      id 8
      name Head
      direction 0.000000 1.000000 0.000000
      length 4.527550
      axis 0.0 0.0 0.0 xyz
      dof rx ry rz
   end
   begin
      id 9
      name LeftShoulder
      direction 1.000000 0.000000 0.000000
      length 6.996006
      axis 0.0 0.0 -90.0 xyz
      dof rx ry rz
   end
   begin
      id 10
      name LeftArm
      direction 1.000000 0.000000 0.000000
      length 10.209302
      axis 0.0 0.0 -90.0 xyz
      dof rx ry rz
   end
   begin
      id 11
      name LeftForeArm
      direction 1.000000 0.000000 0.000000
      length 8.563163
      axis 0.0 0.0 -90.0 xyz
      dof ry rz rx
   end
   begin
      id 12
      name LeftHand
      direction 0.000000 0.000000 0.000000
      length 0.000000
      axis 0.0 0.0 -90.0 xyz
      dof rx ry rz
   end
   begin
      id 13
      name LeftHand_dum1
      direction 0.000000 0.000000 0.000000
      length 0.000000
      axis 0.0 0.0 -90.0 xyz
   end
   begin
      id 14
      name LeftHand_dum2
      direction 1.000000 0.000000 0.000000
      length 3.937000
      axis 0.0 0.0 -90.0 xyz
   end
   begin
      id 15
      name LeftHandThumb1
      direction 0.000000 0.000000 1.000000
      length 3.937000
      axis 0.0 0.0 -90.0 xyz
      dof rx rz ry
   end
   begin
      id 16
      name RightShoulder
      direction -1.000000 0.000000 0.000000
      length 6.996006
      axis 0.0 0.0 90.0 xyz
      dof rx ry rz
   end
   begin
      id 17
      name RightArm
      direction -1.000000 0.000000 0.000000
      length 10.209302
      axis 0.0 0.0 90.0 xyz
      dof rx ry rz
   end
   begin
      id 18
      name RightForeArm
      direction -1.000000 0.000000 0.000000
      length 8.563163
      axis 0.0 0.0 90.0 xyz
      dof ry rz rx
   end
   begin
      id 19
      name RightHand
      direction 0.000000 0.000000 0.000000
      length 0.000000
      axis 0.0 0.0 90.0 xyz
      dof rx ry rz
   end
   begin
      id 20
      name RightHand_dum1
      direction 0.000000 0.000000 0.000000
      length 0.000000
      axis 0.0 0.0 90.0 xyz
   end
   begin
      id 21
      name RightHand_dum2
      direction -1.000000 0.000000 0.000000
      length 3.937000
      axis 0.0 0.0 90.0 xyz
   end
   begin
      id 22
      name RightHandThumb1
      direction 0.000000 0.000000 1.000000
      length 3.937000
      axis 0.0 0.0 90.0 xyz
      dof rx rz ry
   end
   begin
      id 23
      name LeftUpLeg
      direction 0.000000 -1.000000 0.000000
      length 16.346831
      axis 0.0 0.0 0.0 xyz
      dof rx ry rz
   end
   begin
      id 24
      name LeftLeg
      direction 0.000000 -1.000000 0.000000
      length 13.959795
      axis 0.0 0.0 0.0 xyz
      dof rx ry rz
   end
   begin
      id 25
      name LeftFoot
      direction 0.000000 -0.258819 0.965926
      length 5.165550
      axis 15.0 0.0 0.0 xyz
      dof rx ry rz
   end
   begin
      id 26
      name LeftToeBase
      direction 0.000000 0.000000 1.000000
      length 2.952750
      axis 0.0 0.0 0.0 xyz
      dof rx ry rz
   end
   begin
      id 27
      name RightUpLeg
      direction 0.000000 -1.000000 0.000000
      length 16.346831
      axis 0.0 0.0 0.0 xyz
      dof rx ry rz
   end
   begin
      id 28
      name RightLeg
      direction 0.000000 -1.000000 0.000000
      length 13.959795
      axis 0.0 0.0 0.0 xyz
      dof rx ry rz
   end
   begin
      id 29
      name RightFoot
      direction 0.000000 -0.258819 0.965926
      length 5.165550
      axis 15.0 0.0 0.0 xyz
      dof rx ry rz
   end
   begin
      id 30
      name RightToeBase
      direction 0.000000 0.000000 1.000000
      length 2.952750
      axis 0.0 0.0 0.0 xyz
      dof rx ry rz
   end
:hierarchy
   begin
      root Spine_dum LeftUpLeg_dum RightUpLeg_dum
      Spine_dum Spine
      LeftUpLeg_dum LeftUpLeg
      RightUpLeg_dum RightUpLeg
      Spine Spine_dum1 Spine_dum2 Spine_dum3
      Spine_dum1 Head
      Spine_dum2 LeftShoulder
      Spine_dum3 RightShoulder
      LeftShoulder LeftArm
      LeftArm LeftForeArm
      LeftForeArm LeftHand
      LeftHand LeftHand_dum1 LeftHand_dum2
      LeftHand_dum1 LeftHandThumb1
      RightShoulder RightArm
      RightArm RightForeArm
      RightForeArm RightHand
      RightHand RightHand_dum1 RightHand_dum2
      RightHand_dum1 RightHandThumb1
      LeftUpLeg LeftLeg
      LeftLeg LeftFoot
      LeftFoot LeftToeBase
      RightUpLeg RightLeg
      RightLeg RightFoot
      RightFoot RightToeBase
   end

# File created by Blade
# Date/Time:  Tue Jan 27 18:50:05 2015
# Frame Rate: 120.000 fps
#------------------------------------------------------
:FULLY-SPECIFIED
:DEGREES
1224
root -1.986864 31.738899 -5.749687 -5.803222 13.941249 -15.654701
Spine 7.686424 -3.563396 7.508946
Head 9.118140 -13.823784 11.551505
LeftShoulder -15.731652 15.030735 15.144651
LeftArm 14.655327 -25.953205 -67.444530
LeftForeArm -10.799003 -0.000000 121.302393
LeftHand -17.565664 0.000000 21.913350
LeftHandThumb1 -26.253704 0.000000 33.147579
RightShoulder -11.710853 -2.444168 -6.614832
RightArm 17.173767 -34.310078 65.622981
RightForeArm -28.757649 -0.000000 24.400714
RightHand -13.956066 -0.000000 12.609478
RightHandThumb1 -24.326973 -0.000000 -32.862282
LeftUpLeg -7.287501 2.156112 5.935414
LeftLeg 31.052319 -0.000000 -0.000000
LeftFoot -35.108345 22.801091 -21.499081
LeftToeBase 6.798183 -0.000000 -0.000000
RightUpLeg -80.672756 -6.677814 7.396616
RightLeg 94.421137 -0.000000 -0.000000
RightFoot -13.543065 -16.602345 29.651843
RightToeBase 11.287207 -0.000000 -0.000000
1225
root -2.016911 31.780061 -5.740257 -5.928375 14.491241 -16.228813
Spine 7.611298 -4.006071 8.004380
Head 9.152631 -14.494348 11.906368
LeftShoulder -15.643256 15.121027 15.245758
LeftArm 14.752588 -25.616747 -67.397949
LeftForeArm -10.770303 -0.000000 121.193134
LeftHand -17.625845 -0.000000 21.726970
LeftHandThumb1 -26.253704 0.000000 33.147579
RightShoulder -11.870811 -2.451433 -6.466277
RightArm 17.143233 -34.109537 65.611209
RightForeArm -28.703652 -0.000000 24.517190
RightHand -13.815495 0.000000 12.610276
RightHandThumb1 -24.326973 -0.000000 -32.862282
LeftUpLeg -7.444754 2.085737 6.578512
LeftLeg 31.065908 -0.000000 -0.000000
LeftFoot -34.935625 22.222864 -21.515048
LeftToeBase 6.913983 -0.000000 -0.000000
RightUpLeg -79.973135 -6.066838 4.939885
RightLeg 94.534984 -0.000000 -0.000000
RightFoot -12.914092 -17.216651 28.514433
RightToeBase 11.371772 -0.000000 -0.000000
1226
root -2.040751 31.819890 -5.731152 -6.042103 15.038935 -16.755981
Spine 7.525258 -4.407868 8.461752
Head 9.166804 -15.131289 12.279162
LeftShoulder -15.511226 15.210296 15.349763
LeftArm 14.879466 -25.263373 -67.351737
LeftForeArm -10.771080 -0.000000 121.054420
LeftHand -17.438011 -0.000000 21.892454
LeftHandThumb1 -26.253704 0.000000 33.147579
RightShoulder -12.072065 -2.541161 -6.309959
RightArm 17.191457 -33.900248 65.560169
RightForeArm -28.684391 -0.000000 24.658416
RightHand -13.799914 -0.000000 12.617316
RightHandThumb1 -24.326973 -0.000000 -32.862282
LeftUpLeg -7.597290 2.050258 7.170289
LeftLeg 31.067838 -0.000000 -0.000000
LeftFoot -34.715986 21.650433 -21.519734
LeftToeBase 6.792329 -0.000000 -0.000000
RightUpLeg -79.319873 -5.456468 2.523646
RightLeg 94.705922 -0.000000 -0.000000
RightFoot -12.243719 -17.885659 27.020275
RightToeBase 11.939632 -0.000000 -0.000000
1227
root -2.062890 31.859963 -5.722600 -6.152452 15.598224 -17.278445
Spine 7.430684 -4.859208 8.927618
Head 9.172236 -15.743354 12.576591
LeftShoulder -15.398796 15.205485 15.429261
LeftArm 14.924481 -24.938178 -67.263764
LeftForeArm -10.745024 -0.000000 120.894693
LeftHand -17.375155 -0.000000 21.920328
LeftHandThumb1 -26.253704 0.000000 33.147579
RightShoulder -12.231969 -2.630861 -6.172544
RightArm 17.229613 -33.681472 65.523863
RightForeArm -28.622359 0.000000 24.816852
RightHand -13.851270 0.000000 12.589120
RightHandThumb1 -24.326973 -0.000000 -32.862282
LeftUpLeg -7.757257 2.036865 7.765771
LeftLeg 31.059439 -0.000000 -0.000000
LeftFoot -34.444876 21.006671 -21.460499
LeftToeBase 6.743258 -0.000000 -0.000000
RightUpLeg -78.695402 -4.885026 0.223484
RightLeg 94.901652 -0.000000 -0.000000
RightFoot -11.882986 -18.302394 26.526600
RightToeBase 12.572078 -0.000000 -0.000000
1228
root -2.082061 31.897611 -5.714709 -6.210232 16.181597 -17.695295
Spine 7.296903 -5.327235 9.262989
Head 9.185673 -16.313030 12.912316
LeftShoulder -15.298979 15.243175 15.501368
LeftArm 14.996174 -24.663154 -67.163554
LeftForeArm -10.721138 -0.000000 120.748890
LeftHand -17.339811 0.000000 22.068969
LeftHandThumb1 -26.253704 0.000000 33.147579
RightShoulder -12.385626 -2.792004 -6.003527
RightArm 17.309969 -33.434336 65.476899
RightForeArm -28.612698 0.000000 24.984944
RightHand -13.857517 -0.000000 12.454353
RightHandThumb1 -24.326973 -0.000000 -32.862282
LeftUpLeg -7.941706 2.081584 8.262322
LeftLeg 31.022059 -0.000000 -0.000000
LeftFoot -34.217422 20.188147 -21.548212
LeftToeBase 6.865900 -0.000000 -0.000000
RightUpLeg -78.144628 -4.370235 -2.055287
RightLeg 95.167807 -0.000000 -0.000000
RightFoot -11.864248 -18.545077 26.413709
RightToeBase 12.638603 -0.000000 -0.000000
1229
root -2.099387 31.935614 -5.708553 -6.226878 16.764377 -18.110417
Spine 7.105714 -5.733044 9.613948
Head 9.192222 -16.853568 13.198244
LeftShoulder -15.169806 15.349606 15.567309
LeftArm 15.194444 -24.416324 -67.166682
LeftForeArm -10.622830 -0.000000 120.569796
LeftHand -17.263553 -0.000000 22.222994
LeftHandThumb1 -26.253704 0.000000 33.147579
RightShoulder -12.550956 -3.032926 -5.789290
RightArm 17.410815 -33.129821 65.377469
RightForeArm -28.772076 -0.000000 25.186617
RightHand -13.891750 -0.000000 12.256398
RightHandThumb1 -24.326973 -0.000000 -32.862282
LeftUpLeg -8.180938 2.210588 8.756826
LeftLeg 30.983445 -0.000000 -0.000000
LeftFoot -33.945880 19.319148 -21.603567
LeftToeBase 6.966546 -0.000000 -0.000000
RightUpLeg -77.687431 -3.924460 -4.129109
RightLeg 95.426930 -0.000000 -0.000000
RightFoot -12.157999 -19.026538 26.408590
RightToeBase 12.549974 -0.000000 -0.000000
1230
root -2.107996 31.971443 -5.700143 -6.284058 17.362353 -18.474103
Spine 6.965537 -6.184695 9.940533
Head 9.186602 -17.376396 13.388935
LeftShoulder -15.058392 15.384632 15.602751
LeftArm 15.314768 -24.154714 -67.108525
LeftForeArm -10.509330 -0.000000 120.358519
LeftHand -17.177148 0.000000 22.494188
LeftHandThumb1 -26.253704 0.000000 33.147579
RightShoulder -12.685862 -3.107637 -5.691914
RightArm 17.307712 -32.967213 65.428115
RightForeArm -28.844792 -0.000000 25.409537
RightHand -13.968643 -0.000000 12.136008
RightHandThumb1 -24.326973 -0.000000 -32.862282
LeftUpLeg -8.356059 2.326854 9.177943
LeftLeg 30.943988 -0.000000 -0.000000
LeftFoot -33.655879 18.447217 -21.635857
LeftToeBase 7.121714 -0.000000 -0.000000
RightUpLeg -77.175608 -3.542382 -6.163782
RightLeg 95.784502 -0.000000 -0.000000
RightFoot -12.766064 -19.444420 26.319428
RightToeBase 12.426316 -0.000000 -0.000000
1231
root -2.115469 32.005215 -5.695017 -6.323107 17.964095 -18.759480
Spine 6.844747 -6.623665 10.164681
Head 9.145138 -17.785560 13.621269
LeftShoulder -14.953662 15.321786 15.703418
LeftArm 15.381739 -23.852614 -67.073028
LeftForeArm -10.384232 -0.000000 120.090375
LeftHand -17.018278 0.000000 22.812761
LeftHandThumb1 -26.253704 0.000000 33.147579
RightShoulder -12.817529 -3.182193 -5.555621
RightArm 17.250381 -32.776103 65.442904
RightForeArm -28.856080 -0.000000 25.578414
RightHand -13.866360 0.000000 12.308554
RightHandThumb1 -24.326973 -0.000000 -32.862282
LeftUpLeg -8.543331 2.333146 9.516536
LeftLeg 30.888734 -0.000000 -0.000000
LeftFoot -33.328941 17.722279 -21.650923
LeftToeBase 7.215561 -0.000000 -0.000000
RightUpLeg -76.712195 -3.247230 -8.067056
RightLeg 96.149146 -0.000000 -0.000000
RightFoot -13.476681 -19.937957 26.101778
RightToeBase 12.403156 -0.000000 -0.000000
1232
root -2.122641 32.039549 -5.686183 -6.386210 18.556873 -19.074473
Spine 6.731089 -7.051684 10.431778
Head 9.112504 -18.240266 13.802158
LeftShoulder -14.867039 15.337732 15.749031
LeftArm 15.565233 -23.560844 -67.073870
LeftForeArm -10.379578 -0.000000 119.838521
LeftHand -16.914266 -0.000000 23.364565
LeftHandThumb1 -26.253704 0.000000 33.147579
RightShoulder -12.965453 -3.277264 -5.432176
RightArm 17.238636 -32.638149 65.435516
RightForeArm -28.832935 -0.000000 25.704491
RightHand -13.904192 -0.000000 12.182695
RightHandThumb1 -24.326973 -0.000000 -32.862282
LeftUpLeg -8.760189 2.521156 9.892966
LeftLeg 30.893187 -0.000000 -0.000000
LeftFoot -33.018952 16.899779 -21.691206
LeftToeBase 7.281896 -0.000000 -0.000000
RightUpLeg -76.253582 -3.043751 -9.722294
RightLeg 96.535633 -0.000000 -0.000000
RightFoot -14.090048 -20.968117 25.374764
RightToeBase 11.973357 -0.000000 -0.000000
1233
root -2.121708 32.069259 -5.680982 -6.419630 19.157723 -19.300794
Spine 6.613014 -7.448928 10.639911
Head 9.044781 -18.621066 13.933518
LeftShoulder -14.738940 15.310894 15.781261
LeftArm 15.716727 -23.355369 -67.070931
LeftForeArm -10.187177 -0.000000 119.565434
LeftHand -16.895463 0.000000 23.460138
LeftHandThumb1 -26.253704 0.000000 33.147579
RightShoulder -13.120912 -3.388987 -5.342460
RightArm 17.219936 -32.500616 65.452642
RightForeArm -28.847359 -0.000000 25.818785
RightHand -13.916459 0.000000 11.956408
RightHandThumb1 -24.326973 -0.000000 -32.862282
LeftUpLeg -8.956076 2.568634 10.140429
LeftLeg 30.849747 -0.000000 -0.000000
LeftFoot -32.650942 16.230623 -21.593407
LeftToeBase 7.320325 -0.000000 -0.000000
RightUpLeg -75.843813 -2.982267 -11.229025
RightLeg 96.917010 -0.000000 -0.000000
RightFoot -14.834728 -21.975634 24.648435
RightToeBase 12.281644 -0.000000 -0.000000
1234
root -2.119007 32.097320 -5.678179 -6.441881 19.734478 -19.491830
Spine 6.506572 -7.816516 10.812160
Head 8.957727 -18.958092 14.064973
LeftShoulder -14.605108 15.209881 15.836134
LeftArm 15.773215 -23.148174 -67.028363
LeftForeArm -10.080310 -0.000000 119.340755
LeftHand -16.913337 -0.000000 23.388836
LeftHandThumb1 -26.253704 0.000000 33.147579
RightShoulder -13.274937 -3.470171 -5.241417
RightArm 17.156925 -32.448408 65.433985
RightForeArm -28.874070 -0.000000 26.005455
RightHand -13.965630 0.000000 11.857635
RightHandThumb1 -24.326973 -0.000000 -32.862282
LeftUpLeg -9.151637 2.692831 10.334518
LeftLeg 30.793100 -0.000000 -0.000000
LeftFoot -32.298185 15.555788 -21.591317
LeftToeBase 7.313321 -0.000000 -0.000000
RightUpLeg -75.460168 -3.020804 -12.524664
RightLeg 97.282723 -0.000000 -0.000000
RightFoot -15.490078 -23.323536 23.612100
RightToeBase 12.152195 -0.000000 -0.000000
1235
root -2.111972 32.123555 -5.672042 -6.499239 20.278815 -19.675173
Spine 6.443229 -8.189023 10.990577
Head 8.864601 -19.268580 14.163104
LeftShoulder -14.517530 15.096694 15.874728
LeftArm 15.854330 -22.946003 -67.064472
LeftForeArm -9.989607 -0.000000 119.144888
LeftHand -17.029188 -0.000000 23.391847
LeftHandThumb1 -26.253704 0.000000 33.147579
RightShoulder -13.274909 -3.567060 -5.193721
RightArm 16.999657 -32.274824 65.507840
RightForeArm -28.918942 -0.000000 26.171268
RightHand -13.869069 -0.000000 12.007729
RightHandThumb1 -24.326973 -0.000000 -32.862282
LeftUpLeg -9.296968 2.692158 10.505511
LeftLeg 30.740836 -0.000000 -0.000000
LeftFoot -31.924295 15.057847 -21.449410
LeftToeBase 7.296538 -0.000000 -0.000000
RightUpLeg -75.064023 -3.145358 -13.598485
RightLeg 97.667112 -0.000000 -0.000000
RightFoot -15.871468 -25.001251 22.309815
RightToeBase 11.522409 -0.000000 -0.000000
1236
root -2.097941 32.145740 -5.670636 -6.556419 20.799767 -19.812728
Spine 6.416920 -8.492068 11.147680
Head 8.714930 -19.581350 14.248704
LeftShoulder -14.386581 14.963974 15.915041
LeftArm 15.938747 -22.706700 -67.061972
LeftForeArm -9.939197 -0.000000 118.917087
LeftHand -16.868191 -0.000000 23.567493
LeftHandThumb1 -26.253704 0.000000 33.147579
RightShoulder -13.384009 -3.694414 -5.148514
RightArm 17.013355 -32.230805 65.469666
RightForeArm -28.878472 -0.000000 26.247180
RightHand -13.957950 0.000000 11.885707
RightHandThumb1 -24.326973 -0.000000 -32.862282
LeftUpLeg -9.412445 2.613974 10.592937
LeftLeg 30.662738 -0.000000 -0.000000
LeftFoot -31.631887 14.711846 -21.352709
LeftToeBase 7.223695 -0.000000 -0.000000
RightUpLeg -74.693097 -3.421369 -14.491496
RightLeg 97.990303 -0.000000 -0.000000
RightFoot -17.120434 -26.054227 22.352468
RightToeBase 12.099602 -0.000000 -0.000000
